<svg width="50" height="51" viewBox="0 0 50 51" fill="none" xmlns="http://www.w3.org/2000/svg">
<path fill-rule="evenodd" clip-rule="evenodd" d="M26.4143 1.60855L25.0001 0.194336L23.5859 1.60855L12.0144 13.18C11.2334 13.961 11.2334 15.2274 12.0144 16.0084C12.7955 16.7895 14.0618 16.7895 14.8429 16.0084L23.0001 7.85119V36.0228C23.0001 37.1273 23.8955 38.0228 25.0001 38.0228C26.1046 38.0228 27.0001 37.1273 27.0001 36.0228V7.85119L35.1573 16.0084C35.9383 16.7895 37.2047 16.7895 37.9857 16.0084C38.7668 15.2274 38.7668 13.961 37.9857 13.18L26.4143 1.60855ZM4.71436 32.5942C4.71436 31.4896 3.81892 30.5942 2.71436 30.5942C1.60979 30.5942 0.714355 31.4896 0.714355 32.5942V44.4513C0.714355 47.765 3.40065 50.4513 6.71436 50.4513H43.2858C46.5995 50.4513 49.2858 47.765 49.2858 44.4513V32.5942C49.2858 31.4896 48.3904 30.5942 47.2858 30.5942C46.1812 30.5942 45.2858 31.4896 45.2858 32.5942V44.4513C45.2858 45.5559 44.3904 46.4513 43.2858 46.4513H6.71436C5.60979 46.4513 4.71436 45.5559 4.71436 44.4513V32.5942Z" fill="#999999"/>
</svg>
